<?xml version="1.0" encoding="UTF-8" standalone="no"?>
<!-- Created with Inkscape (http://www.inkscape.org/) -->

<svg
   width="91.701897mm"
   height="89.584557mm"
   viewBox="0 0 91.701897 89.584557"
   version="1.1"
   id="svg1"
   inkscape:export-filename="logo.svg"
   inkscape:export-xdpi="96"
   inkscape:export-ydpi="96"
   xmlns:inkscape="http://www.inkscape.org/namespaces/inkscape"
   xmlns:sodipodi="http://sodipodi.sourceforge.net/DTD/sodipodi-0.dtd"
   xmlns="http://www.w3.org/2000/svg"
   xmlns:svg="http://www.w3.org/2000/svg">
  <sodipodi:namedview
     id="namedview1"
     pagecolor="#ffffff"
     bordercolor="#000000"
     borderopacity="0.25"
     inkscape:showpageshadow="2"
     inkscape:pageopacity="0.0"
     inkscape:pagecheckerboard="0"
     inkscape:deskcolor="#d1d1d1"
     inkscape:document-units="mm"
     showguides="true" />
  <defs
     id="defs1" />
  <g
     inkscape:label="Camada 1"
     inkscape:groupmode="layer"
     id="layer1"
     transform="translate(-13.298102,2.2728121)">
    <rect
       style="fill:#000000;fill-opacity:1;stroke:none;stroke-width:0.253423;stroke-linecap:round;stroke-linejoin:round;stroke-miterlimit:99946.9;stroke-dasharray:none;stroke-opacity:1;paint-order:fill markers stroke"
       id="rect2-0"
       width="91.701897"
       height="11.618142"
       x="-105"
       y="-42.634148"
       transform="scale(-1)" />
    <rect
       style="fill:#000000;fill-opacity:1;stroke:none;stroke-width:0.253423;stroke-linecap:round;stroke-linejoin:round;stroke-miterlimit:99946.9;stroke-dasharray:none;stroke-opacity:1;paint-order:fill markers stroke"
       id="rect2-0-7"
       width="91.701897"
       height="11.618142"
       x="-105"
       y="-25.989738"
       transform="scale(-1)" />
    <rect
       style="fill:#000000;fill-opacity:1;stroke:none;stroke-width:0.253423;stroke-linecap:round;stroke-linejoin:round;stroke-miterlimit:99946.9;stroke-dasharray:none;stroke-opacity:1;paint-order:fill markers stroke"
       id="rect2-0-7-9"
       width="91.701897"
       height="11.618142"
       x="-105"
       y="-9.3453302"
       transform="scale(-1)" />
    <path
       id="rect1"
       style="fill:#000000;stroke:none;stroke-width:0.529;stroke-linecap:round;stroke-miterlimit:99946.9;paint-order:fill markers stroke"
       d="m 13.298101,47.660417 v 39.65132 h 7.440373 v -30.19764 h 5.246191 l 0.204122,2.16369 c 0.299382,-0.36741 0.625972,-0.69401 0.979786,-0.97978 0.353812,-0.29938 0.734837,-0.55793 1.143082,-0.77566 0.489898,-0.25856 1.027668,-0.45613 1.612822,-0.59221 0.598761,-0.14969 1.238334,-0.2248 1.918746,-0.2248 1.401644,0 2.639969,0.27268 3.715018,0.81701 1.075049,0.53072 1.979721,1.2857 2.714563,2.26549 0.734846,0.9934 1.286226,2.18436 1.653646,3.57239 0.381031,1.37443 0.571541,2.89852 0.571541,4.57233 v 0.4284 c 0,1.60577 -0.19051,3.0961 -0.571541,4.47053 -0.36742,1.37442 -0.911741,2.55832 -1.632975,3.55172 -0.734844,1.00701 -1.640031,1.79626 -2.71508,2.36781 -1.075049,0.57155 -2.30631,0.85731 -3.694348,0.85731 -0.734843,0 -1.415242,-0.0816 -2.041219,-0.24494 -0.612369,-0.14969 -1.183906,-0.37447 -1.714624,-0.67386 -0.312991,-0.19051 -0.612882,-0.40118 -0.898653,-0.63252 -0.285774,-0.23134 -0.557931,-0.4899 -0.816488,-0.77567 v 10.0304 H 105 v -39.65132 z m 46.877759,0 H 72.5255 v 26.92652 h 6.32778 v 4.61315 H 60.80011 60.17586 41.33515 v -4.61315 h 6.286954 V 61.747407 H 41.33515 v -4.63331 h 12.023037 v 17.47284 h 6.817673 0.62425 5.9893 v -22.10666 h -6.61355 z m -9.696049,0.77824 c 1.007009,0 1.803335,0.28578 2.388485,0.85732 0.598771,0.55794 0.898143,1.27915 0.898143,2.16369 0,0.88453 -0.299372,1.6123 -0.898143,2.18384 -0.58515,0.55794 -1.381476,0.83716 -2.388485,0.83716 -0.489899,0 -0.938955,-0.0751 -1.347204,-0.22479 -0.39464,-0.14969 -0.73484,-0.36036 -1.02061,-0.63252 -0.28577,-0.25856 -0.510561,-0.57154 -0.673861,-0.93896 -0.14977,-0.38103 -0.224275,-0.78927 -0.224275,-1.22473 0,-0.43547 0.0746,-0.83716 0.224275,-1.20458 0.1633,-0.38103 0.388091,-0.70762 0.673861,-0.97979 0.28577,-0.25855 0.62597,-0.46267 1.02061,-0.61236 0.408249,-0.14969 0.857305,-0.22428 1.347204,-0.22428 z m 37.763589,8.2672 c 1.59217,0 3.00739,0.26509 4.24574,0.79582 1.25195,0.5171 2.31338,1.25193 3.1843,2.20451 0.85732,0.95258 1.5105,2.1027 1.95957,3.44992 0.44906,1.33361 0.67386,2.80982 0.67386,4.42919 v 2.40864 H 83.3238 v 0.0615 c 0.19051,0.88453 0.43545,1.59869 0.73484,2.14302 0.29938,0.53072 0.70107,1.01406 1.20458,1.44952 0.51711,0.44907 1.10931,0.79582 1.77612,1.04077 0.6668,0.24495 1.39457,0.36742 2.18385,0.36742 1.11587,0 2.19796,-0.21066 3.24579,-0.63252 1.04782,-0.42185 1.89808,-1.05489 2.55127,-1.89859 l 2.83755,3.06182 c -0.72124,1.02062 -1.86432,1.94596 -3.42925,2.77606 -1.56495,0.83011 -3.41562,1.2454 -5.55211,1.2454 -1.70102,0 -3.24579,-0.2787 -4.63383,-0.83664 -1.38803,-0.55793 -2.57899,-1.32049 -3.57239,-2.28668 -0.99341,-0.95257 -1.76199,-2.07498 -2.30632,-3.36775 -0.53072,-1.30639 -0.79633,-2.70146 -0.79633,-4.18476 v -0.81649 c 0,-1.68742 0.26561,-3.22514 0.79633,-4.61316 0.53073,-1.40164 1.27209,-2.60568 2.22467,-3.61269 0.95257,-1.00701 2.08203,-1.78973 3.38842,-2.34766 1.30639,-0.55794 2.7287,-0.83665 4.26641,-0.83665 z m -0.0403,4.59248 c -0.63959,0 -1.22473,0.11593 -1.75545,0.34727 -0.53071,0.21773 -0.99338,0.53725 -1.38802,0.95911 -0.40825,0.42185 -0.74844,0.92536 -1.02061,1.51051 -0.27217,0.58515 -0.47629,1.23833 -0.61237,1.95957 h 9.30796 v -0.44907 c 0,-0.59877 -0.10887,-1.16324 -0.3266,-1.69396 -0.21773,-0.53073 -0.5171,-0.99338 -0.89813,-1.38802 -0.38103,-0.38103 -0.85027,-0.68041 -1.40818,-0.89814 -0.54433,-0.23134 -1.17736,-0.34727 -1.8986,-0.34727 z m -57.869853,0.0207 c -0.462679,0 -0.884527,0.0473 -1.265556,0.14263 -0.381029,0.0816 -0.728292,0.20412 -1.04128,0.36742 -0.353813,0.19051 -0.666797,0.42892 -0.93896,0.71469 -0.258557,0.28577 -0.483346,0.61891 -0.673861,0.99994 v 9.2263 c 0.176907,0.35381 0.388089,0.67386 0.633036,0.95963 0.258557,0.28576 0.551384,0.53071 0.877983,0.73484 0.312988,0.19051 0.67334,0.3402 1.081587,0.44907 0.408245,0.0953 0.86437,0.14263 1.367876,0.14263 0.802884,0 1.483282,-0.1769 2.041219,-0.53072 0.571543,-0.35381 1.034214,-0.83664 1.388029,-1.44901 0.353813,-0.61236 0.612364,-1.31997 0.775663,-2.12286 0.163297,-0.81649 0.244946,-1.68086 0.244946,-2.59261 v -0.4284 c 0,-0.92537 -0.08871,-1.78971 -0.265617,-2.5926 -0.163297,-0.81649 -0.421848,-1.52412 -0.775663,-2.12287 -0.36742,-0.58515 -0.836638,-1.04782 -1.408183,-1.38803 -0.557937,-0.34021 -1.238334,-0.51005 -2.041219,-0.51005 z"
       sodipodi:nodetypes="cccccccccscccssccssccsccccccccccccccccccccccccccscscscccscccsscccscccccsssccsssccsscsssssccsccssccssccccccccscscsscccs" />
  </g>
</svg>
