<?xml version="1.0" encoding="UTF-8" standalone="no"?>
<!-- Created with Inkscape (http://www.inkscape.org/) -->

<svg
   width="29.262951mm"
   height="15.031738mm"
   viewBox="0 0 29.262951 15.031738"
   version="1.1"
   id="svg1"
   inkscape:export-filename="logo.svg"
   inkscape:export-xdpi="96"
   inkscape:export-ydpi="96"
   inkscape:version="1.3.2 (091e20e, 2023-11-25, custom)"
   sodipodi:docname="logo.svg"
   xmlns:inkscape="http://www.inkscape.org/namespaces/inkscape"
   xmlns:sodipodi="http://sodipodi.sourceforge.net/DTD/sodipodi-0.dtd"
   xmlns="http://www.w3.org/2000/svg"
   xmlns:svg="http://www.w3.org/2000/svg">
  <sodipodi:namedview
     id="namedview1"
     pagecolor="#ffffff"
     bordercolor="#000000"
     borderopacity="0.25"
     inkscape:showpageshadow="2"
     inkscape:pageopacity="0.0"
     inkscape:pagecheckerboard="0"
     inkscape:deskcolor="#d1d1d1"
     inkscape:document-units="mm"
     showguides="true"
     inkscape:zoom="0.81320898"
     inkscape:cx="367.06432"
     inkscape:cy="606.85508"
     inkscape:window-width="1920"
     inkscape:window-height="1009"
     inkscape:window-x="-8"
     inkscape:window-y="-8"
     inkscape:window-maximized="1"
     inkscape:current-layer="layer1" />
  <defs
     id="defs1" />
  <g
     inkscape:label="Camada 1"
     inkscape:groupmode="layer"
     id="layer1"
     transform="translate(-71.068376,-235.83904)">
    <path
       d="m 71.068381,250.87078 h 2.14079 v -3.92735 c 0.09754,0.10781 0.200218,0.20536 0.308028,0.29263 0.107809,0.0873 0.220753,0.16685 0.33883,0.23872 0.200217,0.11295 0.415836,0.19765 0.646857,0.25412 0.236155,0.0616 0.492844,0.0924 0.770069,0.0924 0.523646,0 0.988254,-0.10781 1.393823,-0.32343 0.405569,-0.21562 0.746966,-0.51338 1.024191,-0.89328 0.272091,-0.37477 0.477442,-0.82141 0.616055,-1.33992 0.143746,-0.51851 0.215619,-1.08066 0.215619,-1.68645 v -0.16171 c 0,-0.63145 -0.07187,-1.20644 -0.215619,-1.72495 -0.138613,-0.52365 -0.346531,-0.97285 -0.623755,-1.34762 -0.277225,-0.36963 -0.618622,-0.65456 -1.024191,-0.85478 -0.405569,-0.20535 -0.872744,-0.30803 -1.401525,-0.30803 -0.256689,0 -0.497977,0.0282 -0.723864,0.0847 -0.220753,0.0513 -0.423537,0.12577 -0.608354,0.22332 -0.154014,0.0821 -0.29776,0.17968 -0.431238,0.29263 -0.133479,0.10781 -0.25669,0.23102 -0.369633,0.36963 l -0.07701,-0.81627 h -1.979076 z m 5.313472,-7.45426 v 0.16171 c 0,0.34397 -0.0308,0.66996 -0.09241,0.97799 -0.06161,0.30289 -0.159149,0.56985 -0.292626,0.80087 -0.133479,0.23102 -0.308028,0.41327 -0.523647,0.54675 -0.210485,0.13348 -0.467175,0.20022 -0.770068,0.20022 -0.18995,0 -0.361932,-0.018 -0.515946,-0.0539 -0.154013,-0.0411 -0.290059,-0.0975 -0.408136,-0.16941 -0.123211,-0.077 -0.233587,-0.16942 -0.331129,-0.27723 -0.09241,-0.10781 -0.171983,-0.22845 -0.238722,-0.36193 v -3.48071 c 0.07187,-0.14375 0.156581,-0.26952 0.254123,-0.37733 0.102676,-0.10781 0.220753,-0.19765 0.354231,-0.26952 0.118077,-0.0616 0.248989,-0.10781 0.392735,-0.13862 0.143746,-0.0359 0.302894,-0.0539 0.477443,-0.0539 0.302893,0 0.559583,0.0642 0.770068,0.19252 0.215619,0.12834 0.392735,0.30289 0.531347,0.52364 0.133479,0.22589 0.231021,0.49284 0.292626,0.80087 0.06674,0.30289 0.100109,0.62889 0.100109,0.97799 z m 2.456636,-4.08136 v 1.74805 H 81.2103 v 4.84373 h -2.371811 v 1.74036 h 7.107849 v -1.74036 h -2.572146 v -6.59178 z m 2.217797,-2.13309 c 0,0.16428 0.02824,0.31829 0.08471,0.46204 0.06161,0.13861 0.146314,0.25669 0.254122,0.35423 0.10781,0.10267 0.236155,0.18225 0.385034,0.23872 0.154014,0.0565 0.323429,0.0847 0.508245,0.0847 0.379901,0 0.680227,-0.10524 0.90098,-0.31573 0.225887,-0.21562 0.33883,-0.49028 0.33883,-0.82397 0,-0.3337 -0.112943,-0.60579 -0.33883,-0.81627 -0.220753,-0.21562 -0.521079,-0.32343 -0.90098,-0.32343 -0.184816,0 -0.354231,0.0282 -0.508245,0.0847 -0.148879,0.0565 -0.277224,0.13348 -0.385034,0.23103 -0.107809,0.10267 -0.192517,0.22588 -0.254122,0.36963 -0.05647,0.13861 -0.08471,0.29006 -0.08471,0.45434 z m 4.890052,-1.36302 v 1.74805 h 2.495022 v 8.33984 h -2.495022 v 1.74036 h 7.046126 v -1.74036 h -2.387212 v -10.08789 z m 10.82728,11.98226 c 0.806005,0 1.5042,-0.15658 2.094585,-0.46974 0.590386,-0.31316 1.021625,-0.66226 1.293717,-1.04729 l -1.070397,-1.15511 c -0.246422,0.3183 -0.567284,0.55702 -0.962585,0.71617 -0.395302,0.15915 -0.803438,0.23872 -1.224409,0.23872 -0.297759,0 -0.572417,-0.0462 -0.823973,-0.13861 -0.251555,-0.0924 -0.474875,-0.22333 -0.669959,-0.39274 -0.189951,-0.16428 -0.341398,-0.34653 -0.454341,-0.54675 -0.112943,-0.20535 -0.205351,-0.47487 -0.277224,-0.80857 v -0.0231 h 5.652298 v -0.90868 c 0,-0.61092 -0.0847,-1.16794 -0.25412,-1.67105 -0.169415,-0.50825 -0.415836,-0.94205 -0.739265,-1.30142 -0.328563,-0.35936 -0.728998,-0.63658 -1.201306,-0.83167 -0.467175,-0.20022 -1.00109,-0.30033 -1.601743,-0.30033 -0.580118,0 -1.116599,0.10524 -1.609442,0.31573 -0.492844,0.21049 -0.918949,0.50568 -1.278314,0.88558 -0.359365,0.3799 -0.639157,0.83424 -0.839374,1.36302 -0.200218,0.52365 -0.300327,1.10377 -0.300327,1.74036 v 0.30802 c 0,0.55959 0.100109,1.0858 0.300327,1.57864 0.205351,0.48771 0.49541,0.91125 0.870177,1.27062 0.374767,0.36449 0.823973,0.65198 1.347619,0.86247 0.523647,0.21049 1.106332,0.31573 1.748056,0.31573 z m -0.254123,-6.90751 c 0.272091,0 0.510812,0.0436 0.716164,0.13091 0.210485,0.0821 0.387601,0.19508 0.531347,0.33883 0.143746,0.14888 0.256689,0.32343 0.33883,0.52365 0.08214,0.20021 0.123211,0.41326 0.123211,0.63915 v 0.16942 h -3.511512 c 0.05134,-0.27209 0.128347,-0.51852 0.231021,-0.73927 0.102675,-0.22075 0.23102,-0.4107 0.385034,-0.56985 0.14888,-0.15915 0.323429,-0.27979 0.523646,-0.36193 0.200218,-0.0873 0.420971,-0.13091 0.662259,-0.13091 z"
       id="text1"
       style="font-size:15.771px;font-family:'Roboto Mono';-inkscape-font-specification:'Roboto Mono, Normal';letter-spacing:-2.23308px;word-spacing:0px;fill:#ffffff;fill-opacity:1;stroke-width:0.2;stroke-linecap:round;stroke-linejoin:round;stroke-miterlimit:99946.9;paint-order:fill markers stroke"
       aria-label="pile"
       sodipodi:nodetypes="cccsccssccsscccsccccccccscscsccccccccscccsccccccccccccscccscscscccsscccccccccccssccssscccccscccssscssccsssccssccsccs"
       inkscape:export-filename="..\..\pile-online\public\logo_text.svg"
       inkscape:export-xdpi="96"
       inkscape:export-ydpi="96" />
  </g>
</svg>
